<!--?xml version="1.0" standalone="no"?-->
              <svg id="sw-js-blob-svg" viewBox="0 0 100 100" xmlns="http://www.w3.org/2000/svg" version="1.1">
                    <defs> 
                        <linearGradient id="sw-gradient" x1="0" x2="1" y1="1" y2="0">
                            <stop id="stop1" stop-color="rgba(139.879, 55, 248, 0.21)" offset="0%"></stop>
                            <stop id="stop2" stop-color="rgba(90.488, 31, 251, 0.46)" offset="100%"></stop>
                        </linearGradient>
                    </defs>
                <path fill="url(#sw-gradient)" d="M16.6,-26.7C23.1,-21.7,30.9,-19.7,33.9,-15C36.9,-10.2,35,-2.7,31,2.4C27,7.5,21,10.2,17.4,16.1C13.9,22,12.8,31.1,8.2,36.5C3.5,41.8,-4.9,43.5,-11.2,40.5C-17.5,37.6,-21.9,30.1,-24.2,23.3C-26.6,16.4,-27.1,10.2,-28.8,3.6C-30.6,-3,-33.7,-9.9,-31,-13.4C-28.2,-16.9,-19.6,-17,-13.5,-22.2C-7.3,-27.3,-3.7,-37.5,0.7,-38.6C5.1,-39.7,10.2,-31.7,16.6,-26.7Z" width="100%" height="100%" transform="translate(50 50)" stroke-width="0" style="transition: 0.3s;"></path>
              </svg>