<!--?xml version="1.0" standalone="no"?-->
              <svg id="sw-js-blob-svg" viewBox="0 0 100 100" xmlns="http://www.w3.org/2000/svg" version="1.1">
                    <defs> 
                        <linearGradient id="sw-gradient" x1="0" x2="1" y1="1" y2="0">
                            <stop id="stop1" stop-color="rgba(139.879, 55, 248, 0.21)" offset="0%"></stop>
                            <stop id="stop2" stop-color="rgba(90.488, 31, 251, 0.26)" offset="100%"></stop>
                        </linearGradient>
                    </defs>
                <path fill="url(#sw-gradient)" d="M20.4,-28.7C25.4,-24.4,27.7,-17.1,31.5,-9.3C35.3,-1.6,40.5,6.6,38.4,12.3C36.4,18,27,21.2,19.4,26C11.8,30.9,5.9,37.6,0.2,37.3C-5.4,37,-10.9,29.7,-15.4,23.8C-20,17.9,-23.6,13.4,-24.6,8.4C-25.7,3.5,-24.1,-1.9,-21.9,-6.7C-19.8,-11.4,-17,-15.5,-13.3,-20.3C-9.5,-25,-4.8,-30.4,1.5,-32.4C7.7,-34.5,15.3,-33.1,20.4,-28.7Z" width="100%" height="100%" transform="translate(50 50)" stroke-width="0" style="transition: 0.3s;"></path>
              </svg>