<!--?xml version="1.0" standalone="no"?-->
              <svg id="sw-js-blob-svg" viewBox="0 0 100 100" xmlns="http://www.w3.org/2000/svg" version="1.1">
                    <defs> 
                        <linearGradient id="sw-gradient" x1="0" x2="1" y1="1" y2="0">
                            <stop id="stop1" stop-color="rgba(139.879, 55, 248, 1)" offset="0%"></stop>
                            <stop id="stop2" stop-color="rgba(90.488, 31, 251, 1)" offset="100%"></stop>
                        </linearGradient>
                    </defs>
                <path fill="url(#sw-gradient)" d="M18.9,-22.5C26.7,-16.1,36.5,-12.1,40.1,-5.1C43.6,1.9,40.9,12,34.7,17.5C28.5,23,18.8,24,9.7,27.8C0.7,31.6,-7.8,38.1,-16,37.8C-24.2,37.4,-32.1,30.3,-34.1,22C-36.1,13.8,-32.1,4.4,-28.6,-3.2C-25,-10.8,-21.9,-16.6,-17.2,-23.5C-12.5,-30.5,-6.3,-38.6,-0.3,-38.2C5.6,-37.8,11.2,-28.9,18.9,-22.5Z" width="100%" height="100%" transform="translate(50 50)" stroke-width="0" style="transition: 0.3s;"></path>
              </svg>