<?xml version="1.0"?>
<svg width="355.68" height="289.76" xmlns="http://www.w3.org/2000/svg" xmlns:svg="http://www.w3.org/2000/svg" xmlns:xlink="http://www.w3.org/1999/xlink">
 <linearGradient id="a" x1="0.63" x2="0.35" y1="-2.65" y2="4.2">
  <stop offset="0.01"/>
  <stop offset="0.13" stop-opacity="0.69"/>
  <stop offset="0.25" stop-opacity="0.32"/>
  <stop offset="1" stop-opacity="0"/>
 </linearGradient>
 <linearGradient id="b" x1="117" x2="-17.04" xlink:href="#a" y1="200.47" y2="314.66"/>
 <linearGradient gradientTransform="matrix(-1 0 0 1 1368.9 0)" id="c" x1="1138.46" x2="1004.42" xlink:href="#a" y1="191.97" y2="306.15"/>
 <linearGradient id="d" x1="-0.31" x2="1.31" y1="0.25" y2="0.75">
  <stop offset="0" stop-color="#fff"/>
  <stop offset="1" stop-color="#cbcbcb"/>
 </linearGradient>
 <linearGradient id="e" x1="186.03" x2="161.24" xlink:href="#a" y1="214.87" y2="297.8"/>
 <linearGradient gradientTransform="matrix(1.07 -.1 0 1 93.51 -209.92)" id="f" x1="53.63" x2="53.54" xlink:href="#d" y1="240.56" y2="251.83"/>
 <linearGradient gradientTransform="matrix(.97 .45 -.5 .86 250.98 -199.45)" id="g" x1="65.18" x2="65.8" xlink:href="#d" y1="241.9" y2="250.15"/>
 <linearGradient gradientTransform="matrix(1 .02 0 1 3.8 31.9)" id="h" x1="178.47" x2="267.29" xlink:href="#d" y1="124.05" y2="154.88"/>
 <linearGradient id="i" x1="1.17" x2="0.32" y1="0.3" y2="0.52">
  <stop offset="0.01" stop-color="#fff"/>
  <stop offset="1" stop-color="#fff" stop-opacity="0"/>
 </linearGradient>
 <linearGradient id="j" x1="259.55" x2="266.04" xlink:href="#d" y1="125.82" y2="132.68"/>
 <linearGradient id="k" x1="252.32" x2="289.51" xlink:href="#a" y1="35.88" y2="76.21"/>
 <linearGradient id="l" x1="257.28" x2="257.28" xlink:href="#a" y1="25.95" y2="69.23"/>
 <g class="layer">
  <title>Layer 1</title>
  <path d="m171.82,54.57c-20.91,17.43 -37.76,39.66 -60,55.43c-20.57,14.53 -45.4,23.24 -63.1,41.14a81.54,81.54 0 0 0 0.09,114.78c21.17,21.33 52.47,29.37 82.48,30.95s60.1,-2.35 90.11,-0.74c28.4,1.53 56.64,8 85,5.86s58.39,-15.51 69.59,-41.64c12.4,-28.92 -1.81,-61.46 -11.61,-91.35a323.5,323.5 0 0 1 -14.56,-69.62c-3.4,-35.41 -9.66,-84.58 -54.22,-86.54c-44.26,-2.01 -89.85,13.4 -123.78,41.73z" fill="#b06afc" id="svg_1" opacity="0.18" transform="matrix(1 0 0 1 0 0)"/>
  <path d="m291.08,251.38c1.84,0.94 2.11,3.64 1.07,5.41s-3,2.83 -4.83,3.7a63.69,63.69 0 0 1 -13.78,4.57c-2.15,0.46 -5,1.68 -4.46,3.82c0.39,1.71 2.6,2.12 4.35,2.15c26,0.4 51.71,-6.58 77.7,-6c1.72,0 3.63,0.19 4.81,1.45c1.49,1.59 1.09,4.15 0.25,6.16c-4.64,11.16 -18,15.51 -29.94,17.44c-27.19,4.41 -54.93,3.15 -82.47,2.84c-54.85,-0.6 -109.85,2.63 -164.5,-2.15a6.26,6.26 0 0 1 -3.28,-0.92a5,5 0 0 1 -1.67,-3.37c-0.93,-6.65 4.39,-12.9 10.65,-15.33s13.21,-2 19.91,-1.51c28.39,2 56.9,3.7 85.28,1.56a245.31,245.31 0 0 0 54.8,-10c8.19,-2.55 16.48,-7.57 24.85,-9.1c2.58,-0.47 5.2,-0.15 7.8,-0.28c3.78,-0.19 9.94,-2.23 13.46,-0.44z" fill="url(#a)" id="svg_2" transform="translate(-25.09 -12.62)"/>
  <path d="m25.09,203.6c0.1,3.35 1.75,6.43 3.4,9.35c7.51,13.25 15.91,26.29 27.51,36.13c17.08,14.45 39.45,20.67 61.05,26.51c-1.94,-0.94 -4.26,-10.89 -5.12,-13.08c-1.67,-4.29 -3.23,-8.62 -4.84,-12.92c-2.53,-6.81 -7.87,-12.29 -13,-17.3a103.54,103.54 0 0 0 -41.62,-24.42a98.62,98.62 0 0 0 -27.38,-4.27z" fill="#68e1fd" id="svg_3" transform="translate(-25.09 -12.62)"/>
  <path d="m25.09,203.6c0.1,3.35 1.75,6.43 3.4,9.35c7.51,13.25 15.91,26.29 27.51,36.13c17.08,14.45 39.45,20.67 61.05,26.51c-1.94,-0.94 -4.26,-10.89 -5.12,-13.08c-1.67,-4.29 -3.23,-8.62 -4.84,-12.92c-2.53,-6.81 -7.87,-12.29 -13,-17.3a103.54,103.54 0 0 0 -41.62,-24.42a98.62,98.62 0 0 0 -27.38,-4.27z" fill="url(#b)" id="svg_4" transform="translate(-25.09 -12.62)"/>
  <path d="m84.51,198.38c-1.76,-12.32 -3.57,-24.81 -8.53,-36.23s-13.55,-21.77 -25.22,-26.15l-1,52.95c-0.2,10.19 -0.37,20.58 2.55,30.35c5.14,17.12 22.94,37.21 40.1,42.87c2.54,-8.23 -1.73,-20.68 -3,-29.22l-4.9,-34.57z" fill="#b06afc" id="svg_5" transform="matrix(1 0 0 1 0 0)"/>
  <path d="m322.35,195.1c-0.09,3.34 -1.75,6.43 -3.4,9.34c-7.49,13.25 -15.9,26.3 -27.52,36.13c-17.08,14.45 -39.44,20.68 -61,26.51c1.93,-0.94 4.25,-10.89 5.11,-13.08c1.67,-4.29 3.23,-8.61 4.84,-12.92c2.53,-6.81 7.87,-12.28 13.06,-17.29a103.29,103.29 0 0 1 41.56,-24.42a97.76,97.76 0 0 1 27.35,-4.27z" fill="#68e1fd" id="svg_6" transform="translate(-25.09 -12.62)"/>
  <path d="m322.35,195.1c-0.09,3.34 -1.75,6.43 -3.4,9.34c-7.49,13.25 -15.9,26.3 -27.52,36.13c-17.08,14.45 -39.44,20.68 -61,26.51c1.93,-0.94 4.25,-10.89 5.11,-13.08c1.67,-4.29 3.23,-8.61 4.84,-12.92c2.53,-6.81 7.87,-12.28 13.06,-17.29a103.29,103.29 0 0 1 41.56,-24.42a97.76,97.76 0 0 1 27.35,-4.27z" fill="url(#c)" id="svg_7" transform="translate(-25.09 -12.62)"/>
  <path d="m212.75,189.89c1.76,-12.32 3.57,-24.82 8.53,-36.23s13.55,-21.82 25.22,-26.16q0.51,26.48 1,52.94c0.19,10.2 0.37,20.59 -2.56,30.36c-5.13,17.12 -22.94,37.21 -40.09,42.86c-2.55,-8.22 1.72,-20.68 2.94,-29.22l4.96,-34.55z" fill="#b36afc" id="svg_8" transform="matrix(1 0 0 1 0 0)"/>
  <path d="m115.09,152.54a2.22,2.22 0 0 0 -0.68,0.78a6.23,6.23 0 0 0 -1.33,4a0.35,0.35 0 0 0 0.08,0.22a0.43,0.43 0 0 0 0.2,0.07c0.62,0.09 1.25,0.16 1.88,0.21a11.44,11.44 0 0 0 -0.29,5.08a1.86,1.86 0 0 0 0.31,1.06a2,2 0 0 0 1.57,0.49l3.7,0a12.62,12.62 0 0 0 2,-0.11a0.64,0.64 0 0 0 0.33,-0.13a0.54,0.54 0 0 0 0.13,-0.35c0.23,-1.62 -0.24,-3.24 -0.31,-4.87a0.51,0.51 0 0 1 0,-0.3a0.54,0.54 0 0 1 0.27,-0.22l1.08,-0.57a0.79,0.79 0 0 0 0.27,-0.21a0.75,0.75 0 0 0 0.09,-0.39a5.07,5.07 0 0 0 -1.32,-4a4.77,4.77 0 0 0 -2.81,-0.94c-0.94,-0.06 -1.87,-0.1 -2.81,-0.21a4.43,4.43 0 0 0 -2.36,0.39z" fill="none" id="svg_9" transform="translate(-25.09 -12.62)"/>
  <path d="m117.67,152.92a1.46,1.46 0 0 0 0.37,0.52a1.24,1.24 0 0 0 0.56,0.22a1.18,1.18 0 0 0 0.59,-0.07a1,1 0 0 0 0.44,-0.44a2.06,2.06 0 0 0 0.17,-0.6a3.49,3.49 0 0 0 -0.14,-1.47a1.18,1.18 0 0 0 -0.21,-0.4a1,1 0 0 0 -0.61,-0.28c-0.32,-0.06 -1.07,-0.11 -1.22,0.27a3.17,3.17 0 0 0 -0.18,1.4a2.82,2.82 0 0 0 0.23,0.85z" fill="none" id="svg_10" transform="translate(-25.09 -12.62)"/>
  <path d="m120.94,148.43a2.92,2.92 0 0 1 -0.69,2a1.67,1.67 0 0 1 -2,0.42a2.81,2.81 0 0 1 -0.62,-0.52a4.53,4.53 0 0 1 -0.82,-1a3.18,3.18 0 0 1 -0.28,-1.14a3.28,3.28 0 0 1 0.11,-1.39a1.8,1.8 0 0 1 0.88,-1.05a2.72,2.72 0 0 1 1.06,-0.18a4.74,4.74 0 0 1 1.25,0.13c0.47,0.13 0.87,0.33 0.9,0.84s0.27,1.24 0.21,1.89z" fill="none" id="svg_11" transform="translate(-25.09 -12.62)"/>
  <path d="m194.98,17.94l-92.57,9.11c-9.56,0.94 -17.32,9 -17.32,17.95l0,207.55c0,9 7.76,15.48 17.32,14.54l92.57,-9.11c9.57,-0.94 17.33,-9 17.33,-17.94l0,-207.55c0,-8.98 -7.76,-15.49 -17.33,-14.55zm8.49,222.54c0,5.53 -4.78,10.48 -10.67,11.06l-89.95,8.85c-5.9,0.58 -10.68,-3.43 -10.68,-9l0,-207c0,-5.53 4.78,-10.48 10.68,-11.06l13.48,-1.33l0,1.23c0,3.54 3.06,6.11 6.83,5.74l49.75,-4.83a7.48,7.48 0 0 0 6.84,-7.08l0,-1.18l13,-1.28c5.89,-0.58 10.67,3.43 10.67,9l0.05,206.88z" fill="#ae6afc" id="svg_12" stroke="#ffffff" transform="matrix(1 0 0 1 0 0)"/>
  <path d="m224.43,33.89l-92.58,9.11c-9.56,0.94 -17.32,9 -17.32,18l0,207.5c0,9 7.76,15.48 17.32,14.54l92.58,-9.1c9.56,-0.94 17.32,-9 17.32,-17.95l0,-207.55c0,-8.97 -7.75,-15.44 -17.32,-14.55zm8.49,222.54c0,5.53 -4.78,10.48 -10.68,11.06l-90,8.85c-5.9,0.58 -10.68,-3.43 -10.68,-9l0,-207c0,-5.53 4.78,-10.49 10.68,-11.07l13.53,-1.27l0,1.22c0,3.54 3.06,6.11 6.83,5.74l49.76,-4.89a7.5,7.5 0 0 0 6.83,-7.07l0,-1.21l13.05,-1.29c5.9,-0.58 10.68,3.44 10.68,9l0,206.93z" fill="#fff" id="svg_13" transform="translate(-25.09 -12.62)"/>
  <path d="m232.92,49.47l0,207c0,5.53 -4.78,10.48 -10.68,11.06l-90,8.85c-5.9,0.58 -10.68,-3.43 -10.68,-9l0,-207c0,-5.53 4.78,-10.49 10.68,-11.07l13.53,-1.31l0,1.22c0,3.54 3.06,6.11 6.83,5.74l49.76,-4.89a7.5,7.5 0 0 0 6.83,-7.07l0,-1.21l13.05,-1.29c5.9,-0.58 10.68,3.44 10.68,8.97z" fill="none" id="svg_14" stroke="url(#d)" stroke-miterlimit="10" stroke-width="0.63" transform="translate(-25.09 -12.62)"/>
  <path d="m209.42,32.47l0,207c0,5.53 -4.78,10.48 -10.68,11.06l-90,8.85c-5.9,0.58 -10.68,-3.43 -10.68,-9l0,-207c0,-5.53 4.78,-10.49 10.68,-11.07l13.53,-1.31l0,1.22c0,3.54 3.06,6.11 6.83,5.74l49.76,-4.89a7.5,7.5 0 0 0 6.83,-7.07l0,-1.21l13.05,-1.29c5.9,-0.58 10.68,3.44 10.68,8.97z" fill="#956afc" id="svg_15" transform="matrix(1 0 0 1 0 0)"/>
  <path d="m202.2,245.88l-45.2,4.33a4.62,4.62 0 0 1 -5,-4.61l0,-11.31a4.68,4.68 0 0 1 4.23,-4.66l45.18,-4.33a4.62,4.62 0 0 1 5.06,4.61l0,11.31a4.69,4.69 0 0 1 -4.27,4.66z" fill="url(#e)" id="svg_16" transform="translate(-25.09 -12.62)"/>
  <path d="m159.17,34.76l-17.1,1.68l0,-1.42l17.1,-1.68l0,1.42z" fill="url(#f)" id="svg_17"/>
  <ellipse cx="188.77" cy="46.01" fill="url(#g)" id="svg_18" rx="1.91" ry="1.7" transform="matrix(.86330748 -.50467831 .50467831 .86330748 -22.51 88.93)"/>
  <g id="svg_19" transform="matrix(1 0 0 1 0 0)">
   <path d="m119.16,193.49l65.21,-6.25a8.79,8.79 0 0 0 8,-8.83l0,-73.57a9.72,9.72 0 0 0 -10.52,-9.61l-65.21,6.25a8.78,8.78 0 0 0 -8,8.82l0,73.58a9.72,9.72 0 0 0 10.52,9.61z" fill="#c9d9df" id="svg_20"/>
   <path d="m123.01,194.53l65.21,-6.25a8.78,8.78 0 0 0 8,-8.82l0,-73.58a9.72,9.72 0 0 0 -10.52,-9.61l-65.21,6.25a8.79,8.79 0 0 0 -8,8.83l0,73.57a9.72,9.72 0 0 0 10.52,9.61z" fill="url(#h)" id="svg_21"/>
   <path d="m125.52,116l23.4,-1.88l0,23.49l-23.4,1.88l0,-23.49zm19.52,18l0,-15.62l-15.64,1.26l0,15.71l15.64,-1.35z" fill="#473f47" id="svg_22"/>
   <path d="m164.7,112.83l23.38,-1.88l0,23.51l-23.38,1.92l0,-23.55zm19.51,18.06l0,-15.71l-15.65,1.26l0,15.71l15.65,-1.26z" fill="#473f47" id="svg_23"/>
   <path d="m148.92,176.93l-23.4,1.88l0,-23.43l23.4,-1.88l0,23.43zm-19.54,-2.33l15.68,-1.22l0,-15.7l-15.68,1.26l0,15.66z" fill="#473f47" id="svg_24"/>
   <path d="m156.77,117.38l3.9,-0.31l0,7.81l-3.87,0.31l0,3.9l-3.85,0.31l0,-15.6l3.82,-0.31l0,3.89z" fill="#473f47" id="svg_25"/>
   <path d="m188.09,146.26l-7.74,0.62l0,-3.9l-7.82,0.62l0,-3.85l15.56,-1.25l0,7.76z" fill="#473f47" id="svg_26"/>
   <path d="m184.22,162.38l0,3.86l3.86,-0.31l0,7.81l-7.71,0.62l0,-11.64l3.85,-0.34z" fill="#473f47" id="svg_27"/>
   <path d="m133.28,142.9l0,3.87l3.88,-0.31l0,3.92l-11.63,0.94l0,-7.76l7.75,-0.66z" fill="#473f47" id="svg_28"/>
   <path d="m156.8,140.98l11.68,-0.94l0,7.81l-7.78,0.63l0,-4l-3.9,0.31l0,-3.9l0,0.09z" fill="#473f47" id="svg_29"/>
   <path d="m164.7,152.12l3.87,-0.31l0,-3.88l7.76,-0.63l0,7.76l-11.63,0.93l0,-3.87z" fill="#473f47" id="svg_30"/>
   <path d="m160.7,148.48l0,7.81l-7.78,0.63l0,-7.81l7.82,-0.63l-0.04,0z" fill="#473f47" id="svg_31"/>
   <path d="m160.69,168.23l2.1,-0.21l5.13,-0.41l0.58,0l0,7.77l-7.76,0.63l0,-7.2c0,-0.19 0,-0.37 0,-0.56l-0.05,-0.02z" fill="#473f47" id="svg_32"/>
   <path d="m152.92,149.11l-7.79,0.62l0,-3.88l3.85,-0.31l0,-3.93l3.93,-0.32l0,7.85l0.01,-0.03z" fill="#473f47" id="svg_33"/>
   <path d="m188.09,158.04l-3.83,0.31l0,-3.89l-3.88,0.31l0,-3.87l7.71,-0.62l0,7.76z" fill="#473f47" id="svg_34"/>
   <path d="m156.83,168.51l0,-4l-3.88,0.31l0,-3.84l7.74,-0.62l0,7.85c-0.6,0 -1.19,0 -1.78,0.08s-1.4,0.14 -2.1,0.21l0.02,0.01z" fill="#473f47" id="svg_35"/>
   <path d="m156.84,137.07l0,-7.85l3.83,-0.31l0,7.84l-3.85,0.31l0.02,0.01z" fill="#473f47" id="svg_36"/>
   <path d="m156.82,168.5l0,7.15l0,0.64l-3.85,0.31l0,-7.77l3.89,-0.32l-0.04,-0.01z" fill="#473f47" id="svg_37"/>
   <path d="m145,141.96l0,3.83l-7.71,0.62l0,-3.83l7.71,-0.62z" fill="#473f47" id="svg_38"/>
   <path d="m172.53,163.22l0,-3.84l7.72,-0.62l0,3.81l-7.72,0.65z" fill="#473f47" id="svg_39"/>
   <path d="m172.53,175.02l0,-7.74l3.8,-0.31l0,7.74l-3.8,0.31z" fill="#473f47" id="svg_40"/>
   <path d="m152.91,141.29l0,-3.91l3.93,-0.32l0,3.92l-3.92,0.32l-0.01,-0.01z" fill="#473f47" id="svg_41"/>
   <path d="m164.69,163.85l0,-3.82l3.8,-0.3l0,3.81l-3.8,0.31z" fill="#473f47" id="svg_42"/>
   <path d="m160.77,160.23l0,-3.85l3.81,-0.31l0,3.82l-3.81,0.34z" fill="#473f47" id="svg_43"/>
   <path d="m172.41,167.17l-3.79,0.31l0,-3.83l3.79,-0.31l0,3.83z" fill="#473f47" id="svg_44"/>
   <path d="m141.09,122.62l-7.73,0.62l0,7.74l7.73,-0.62l0,-7.74z" fill="#473f47" id="svg_45"/>
   <path d="m180.25,127.23l0,-7.76l-7.7,0.62l0,7.76l7.7,-0.62z" fill="#473f47" id="svg_46"/>
   <path d="m133.34,170.31l7.73,-0.62l0,-7.75l-7.73,0.62l0,7.75z" fill="#473f47" id="svg_47"/>
   <path d="m141.09,122.62l0,7.76l-7.73,0.62l0,-7.74l7.73,-0.64z" fill="#473f47" id="svg_48"/>
   <path d="m180.25,127.23l-7.7,0.62l0,-7.76l7.7,-0.62l0,7.76z" fill="#473f47" id="svg_49"/>
   <path d="m133.34,170.31l0,-7.75l7.73,-0.62l0,7.75l-7.73,0.62z" fill="#473f47" id="svg_50"/>
   <path d="m179.62,231.76l-45.18,4.32a4.61,4.61 0 0 1 -5.06,-4.6l0,-11.31a4.68,4.68 0 0 1 4.23,-4.66l45.18,-4.33a4.62,4.62 0 0 1 5.06,4.61l0,11.31a4.68,4.68 0 0 1 -4.23,4.66z" fill="#fff" id="svg_51"/>
   <path d="m142.8,226.87l1.86,-0.18a0.65,0.65 0 0 0 0.25,0.49a1,1 0 0 0 0.68,0.14a1.37,1.37 0 0 0 0.66,-0.23a0.59,0.59 0 0 0 0.28,-0.52a0.61,0.61 0 0 0 0,-0.15a0.69,0.69 0 0 0 -0.21,-0.18a1.68,1.68 0 0 0 -0.53,-0.2l-0.89,-0.2a3.4,3.4 0 0 1 -1,-0.33a1.6,1.6 0 0 1 -0.61,-0.52a1.94,1.94 0 0 1 -0.35,-1.11a2.2,2.2 0 0 1 0.75,-1.69a3.19,3.19 0 0 1 1.9,-0.79a2.59,2.59 0 0 1 1.88,0.44a1.87,1.87 0 0 1 0.73,1.59l-1.84,0.17c0,-0.45 -0.26,-0.65 -0.79,-0.6a1,1 0 0 0 -0.59,0.21a0.56,0.56 0 0 0 -0.21,0.44c0,0.26 0.23,0.44 0.7,0.53l0.87,0.19c1.4,0.28 2.1,1 2.1,2a2.08,2.08 0 0 1 -0.45,1.33a2.67,2.67 0 0 1 -1.06,0.82a4,4 0 0 1 -1.3,0.33a2.89,2.89 0 0 1 -2,-0.43a1.84,1.84 0 0 1 -0.83,-1.55z" fill="#68e1fd" id="svg_52"/>
   <path d="m154.79,225.38l1.51,0.87a4.24,4.24 0 0 1 -1.38,1.35a4.2,4.2 0 0 1 -1.84,0.62a3.49,3.49 0 0 1 -2.73,-0.84a3.24,3.24 0 0 1 -1.13,-2.54a3.92,3.92 0 0 1 1.13,-2.75a4.11,4.11 0 0 1 2.73,-1.34a3.69,3.69 0 0 1 1.85,0.27a3.33,3.33 0 0 1 1.38,1.1l-1.53,1.16a1.64,1.64 0 0 0 -0.72,-0.6a1.9,1.9 0 0 0 -1,-0.16a2.14,2.14 0 0 0 -1.42,0.71a2.05,2.05 0 0 0 -0.58,1.44a1.67,1.67 0 0 0 0.58,1.33a1.78,1.78 0 0 0 1.42,0.44a2.16,2.16 0 0 0 1,-0.33a2.28,2.28 0 0 0 0.73,-0.73z" fill="#68e1fd" id="svg_53"/>
   <path d="m162.08,227.25l-0.64,-1.61l-2.38,0.22l-0.64,1.73l-2,0.18l2.8,-7.54l2,-0.18l2.78,7l-1.92,0.2zm-1.85,-5.42l-0.68,2.46l1.42,-0.13l-0.74,-2.33z" fill="#68e1fd" id="svg_54"/>
   <path d="m168.68,219.38l1.83,-0.17l0,7.29l-1.6,0.14l-2.32,-3.76l0,4l-1.84,0.17l0,-7.29l1.66,-0.15l2.27,3.71l0,-3.94z" fill="#68e1fd" id="svg_55"/>
  </g>
  <path d="m239.54,117.89l-49.05,-22.7l-80.3,9.71l2.04,85.68l6.68,2.91l73.2,-5.87l3.85,-8.16l42.85,-58.21l0.73,-3.36z" fill="url(#i)" id="svg_56" transform="matrix(1 0 0 1 0 0)"/>
  <path d="m262.72,135.76l0,-7.18a1.34,1.34 0 0 1 0.68,-1.17l4,-2.23c0.42,-0.24 2.08,0.73 2.08,1.21l-1.13,12.32l-2.81,2.17l-2.81,-1.65l-0.01,-3.47z" fill="#fff" id="svg_57" transform="translate(-25.09 -12.62)"/>
  <path d="m262.72,135.76l0,-7.18a1.34,1.34 0 0 1 0.68,-1.17l4,-2.23c0.42,-0.24 2.08,0.73 2.08,1.21l-1.13,12.32l-2.81,2.17l-2.81,-1.65l-0.01,-3.47z" fill="url(#j)" id="svg_58" transform="translate(-25.09 -12.62)"/>
  <path d="m263.9,136.65l0,-7.19a1.32,1.32 0 0 1 0.68,-1.16l4,-2.24a0.64,0.64 0 0 1 0.95,0.55l0,13l-2.81,2.16l-2.81,-1.64l-0.01,-3.48z" fill="#fff" id="svg_59" transform="translate(-25.09 -12.62)"/>
  <path d="m239.54,123.73l0,-5.84l4.55,-2.87l0,9.66l-1,3.25l-2.12,0.7s-1.13,-0.48 -1.13,-0.63" fill="#c16afc" id="svg_60"/>
  <path d="m328.23,189.54l-0.6,0.81l2.16,-30.76l0.43,-6.18l0.21,-3l1.13,2.43c2.12,4.47 6.52,13.82 7.75,16.38c1.41,2.94 -8.51,16.78 -11.08,20.32z" fill="#fff" id="svg_61" transform="translate(-25.09 -12.62)"/>
  <path d="m328.23,189.54a3.72,3.72 0 0 1 -0.27,-1.87a8.74,8.74 0 0 1 1.76,-3.84c2.38,-3.5 5.36,-7.21 6.73,-11.27c1.8,-5.37 -4.1,-8.7 -6.66,-13a7.09,7.09 0 0 1 -1.13,-3.36a2.94,2.94 0 0 1 1.56,-2.82a5,5 0 0 1 1.34,-0.58c2.12,4.47 6.52,13.82 7.75,16.38c1.41,2.98 -8.51,16.82 -11.08,20.36z" fill="#020202" id="svg_62" opacity="0.1" transform="translate(-25.09 -12.62)"/>
  <path d="m313.58,274.17a4.87,4.87 0 0 0 -2.24,2.08a1,1 0 0 0 -0.09,0.66a1.24,1.24 0 0 0 0.79,0.69c2.52,1 5.37,0.81 8,0.33a42.49,42.49 0 0 1 8.05,-1.17a1.62,1.62 0 0 0 1.3,-0.36a1.38,1.38 0 0 0 0.23,-0.85a16.16,16.16 0 0 0 -1.2,-6.9c0.06,0.14 -7.13,0.43 -7.75,0.85c-1.14,0.79 -2.09,1.8 -3.31,2.53s-2.51,1.42 -3.78,2.14z" fill="#282328" id="svg_63" transform="translate(-25.09 -12.62)"/>
  <path d="m323.14,222.7a164.81,164.81 0 0 0 2.16,27.48c0.24,1.58 0.5,3.15 0.82,4.72c2.36,11.6 2.55,14.55 2.55,14.55l-9.48,0s-7,-32.85 -9.6,-40.33a118.85,118.85 0 0 1 -4.59,-17.38a15.56,15.56 0 0 1 1,-8.27a10.62,10.62 0 0 1 1.55,-2.87a11.93,11.93 0 0 1 4.7,-3.18a30.9,30.9 0 0 1 12.17,-2.74a2.4,2.4 0 0 1 1.38,0.3a2.2,2.2 0 0 1 0.62,0.82c1.23,2.5 1,5.44 0.62,8.2a20.78,20.78 0 0 1 -1,4.5c-0.56,1.49 -1.44,2.84 -1.95,4.35a18.67,18.67 0 0 0 -0.76,4.47c-0.06,1.79 -0.15,3.58 -0.19,5.38z" fill="#282328" id="svg_64" transform="translate(-25.09 -12.62)"/>
  <path d="m299.38,215.44a17.83,17.83 0 0 1 0.23,3.62a64.35,64.35 0 0 0 0.21,6.51c0.53,10.31 2.09,20.58 2.1,30.9c0,8.8 -0.29,18 -0.29,18s7.67,2.36 9.44,0.59l2.95,-42.5c0.45,-3.21 1.14,-6.47 1.37,-9.7c0.2,-2.81 0.26,-5.19 1.31,-7.89c1.18,-3 2.86,-5.83 3.77,-8.95a18.84,18.84 0 0 0 0.75,-6.16a3,3 0 0 0 -0.5,-1.8a3.3,3.3 0 0 0 -1.25,-0.81c-5.31,-2.36 -10.82,-4.76 -16.63,-4.71a2.38,2.38 0 0 0 -1.35,0.29a2.48,2.48 0 0 0 -0.81,1.25a35.33,35.33 0 0 0 -1.91,17.7c0.23,1.29 0.43,2.47 0.61,3.66z" fill="#473f47" id="svg_65" transform="translate(-25.09 -12.62)"/>
  <path d="m270.74,143c-0.23,-1.35 -0.2,-2.76 -0.32,-4.13a3.11,3.11 0 0 0 -0.42,-1.53a1.17,1.17 0 0 0 -1.4,-0.47c-0.62,0.31 -0.64,1.16 -0.62,1.85s-0.16,1.57 -0.84,1.7a1.29,1.29 0 0 1 -0.74,-0.15a2.48,2.48 0 0 1 -1.28,-1.81c-0.06,-0.45 0,-0.92 -0.08,-1.37c-0.26,-1.3 -1.94,-1.08 -2.72,-0.4a5.15,5.15 0 0 0 -1.1,1.55a11.34,11.34 0 0 0 -1.23,3.15c-0.83,4.51 4.61,5.48 6.91,8.36a9.84,9.84 0 0 0 1.1,1.25a2.93,2.93 0 0 0 2.88,0.54a2.9,2.9 0 0 0 1.86,-2.26c0.27,-1.68 -0.95,-3.19 -1.55,-4.79a8.22,8.22 0 0 1 -0.45,-1.49z" fill="#ffbbab" id="svg_66" transform="translate(-25.09 -12.62)"/>
  <path d="m309.85,131.28a1.38,1.38 0 0 1 0.21,0.42a2.1,2.1 0 0 1 0,0.93a39.34,39.34 0 0 0 -0.83,5.49a2.33,2.33 0 0 0 0.28,1.5a2.36,2.36 0 0 0 1.58,0.74a14.64,14.64 0 0 0 2.65,0.18c0.35,0 0.78,0 1,0.29a0.93,0.93 0 0 1 0.12,0.43a4.08,4.08 0 0 1 -0.39,2a1.81,1.81 0 0 0 -0.26,1c0.07,0.64 1,0.58 1.48,0.61c1.82,0.09 3.65,0.1 5.47,0a1.89,1.89 0 0 0 0.91,-0.19c0.49,-0.29 0.6,-0.94 0.74,-1.49c0.62,-2.55 2.59,-4.53 3.65,-6.93a10.53,10.53 0 0 0 0.07,-8.1a11.17,11.17 0 0 0 -2.12,-3.33c-0.82,-0.91 -2.4,-1.1 -3.54,-1.34c-2,-0.42 -4.22,-0.54 -6,0.53c-2,1.2 -2.92,3.66 -4.93,4.81c-0.35,0.2 -0.78,0.4 -0.9,0.79a1.24,1.24 0 0 0 0.37,1.09c0.13,0.2 0.3,0.37 0.44,0.57z" fill="#ffbbab" id="svg_67" transform="translate(-25.09 -12.62)"/>
  <path d="m315.42,123.32a2.9,2.9 0 0 0 0.28,0.89c0.64,1.33 1.48,1 2.63,1.17c1.4,0.25 2.31,1.82 2.6,3.1a12.26,12.26 0 0 1 -0.15,4.67a1.91,1.91 0 0 1 2.22,-0.15a2.09,2.09 0 0 1 0.86,2.1a2.19,2.19 0 0 1 -1.58,1.67c-0.39,0.1 -0.85,0.12 -1.09,0.44a1.29,1.29 0 0 0 -0.16,0.76c0,1.7 0.07,3.55 1.15,4.87c1.5,-0.15 2.64,-1.35 3.76,-2.35c1.59,-1.42 3.41,-2.58 4.94,-4.07a8.34,8.34 0 0 0 2.81,-5.57c0.05,-3.45 -3,-6.11 -4.12,-9.36a12.92,12.92 0 0 0 -0.79,-2.13a4,4 0 0 0 -5.84,-1a4.94,4.94 0 0 0 -5.43,0a5.58,5.58 0 0 0 -2.09,4.96z" fill="#fc682d" id="svg_68" transform="translate(-25.09 -12.62)"/>
  <path d="m330.06,161.26a56.32,56.32 0 0 0 -0.4,9.72c0.09,3.17 0.24,6.32 0.37,9.49c-0.61,2.73 -1.29,5.46 -2,8.16a25.3,25.3 0 0 1 -2.21,6.35a9.42,9.42 0 0 1 -2,2.57a9.62,9.62 0 0 1 -2.69,1.67a16.94,16.94 0 0 1 -7.23,1a23.22,23.22 0 0 1 -5.12,-0.78a14.34,14.34 0 0 1 -5.83,-3a12.58,12.58 0 0 1 -2.2,-2.58a17.49,17.49 0 0 1 -2.59,-7.79a28.75,28.75 0 0 1 1.71,-13.4c0.09,-0.25 0.19,-0.49 0.29,-0.74c0.69,-1.76 1.38,-3.52 2.09,-5.28c0,0 0,-0.05 0,-0.07c0.11,-0.28 0.22,-0.54 0.32,-0.81l0.06,-0.15l-0.39,0.16l-0.41,0.15a3.1,3.1 0 0 1 -0.4,0.13c-0.29,0.11 -0.6,0.19 -0.89,0.27l-1,0.25c-0.57,0.12 -1.15,0.23 -1.73,0.3l-0.79,0.09c-7.27,0.64 -15.2,-2.3 -21.28,-5.55a21.44,21.44 0 0 1 -5.38,-3.89a13.54,13.54 0 0 1 -0.93,-1.1a9.37,9.37 0 0 1 -1.58,-3.21a3.62,3.62 0 0 1 0,-2.16a0.56,0.56 0 0 1 0.05,-0.08a4.35,4.35 0 0 1 0.9,-1.29a37.9,37.9 0 0 1 2.93,-2.88l0.32,-0.28a2.59,2.59 0 0 1 0.95,-0.53a2.42,2.42 0 0 1 2,0.44a9.75,9.75 0 0 1 1.42,1.21a27.85,27.85 0 0 0 20.94,7.64a16.25,16.25 0 0 0 6.08,-1.46a23,23 0 0 0 4.64,-3.32a43.82,43.82 0 0 0 3.62,-3.32c0.3,-0.32 0.61,-0.65 0.88,-1s0.44,-0.54 0.65,-0.81l0.26,-0.34a2.88,2.88 0 0 1 0.88,-0.86a3.54,3.54 0 0 1 1.61,-0.32c2.17,-0.09 4.53,-0.5 6.67,-0.45l0.23,0a4.2,4.2 0 0 1 0.62,0.07a4,4 0 0 1 2,0.93a16.39,16.39 0 0 1 1.9,2.18a15.74,15.74 0 0 1 3.08,5c1.04,3.06 0.06,6.41 -0.42,9.67z" fill="#fff" id="svg_69" transform="translate(-25.09 -12.62)"/>
  <path d="m332.56,160.93a70.33,70.33 0 0 1 -0.79,10.36c-0.45,3.09 -1,6.14 -1.74,9.18c-0.13,-3.17 -0.28,-6.32 -0.37,-9.49a56.32,56.32 0 0 1 0.4,-9.72c0.48,-3.25 1.46,-6.61 0.45,-9.73a15.74,15.74 0 0 0 -3.08,-5a16.39,16.39 0 0 0 -1.9,-2.18c2,1.51 3.58,4.32 4.9,6c2.25,2.95 2.11,7.06 2.13,10.58z" fill="#fff" id="svg_70" transform="translate(-25.09 -12.62)"/>
  <path d="m332.56,160.93a70.33,70.33 0 0 1 -0.79,10.36c-0.45,3.09 -1,6.14 -1.74,9.18c-0.13,-3.17 -0.28,-6.32 -0.37,-9.49a56.32,56.32 0 0 1 0.4,-9.72c0.48,-3.25 1.46,-6.61 0.45,-9.73a15.74,15.74 0 0 0 -3.08,-5a16.39,16.39 0 0 0 -1.9,-2.18c2,1.51 3.58,4.32 4.9,6c2.25,2.95 2.11,7.06 2.13,10.58z" fill="#020202" id="svg_71" opacity="0.1" transform="translate(-25.09 -12.62)"/>
  <path d="m330.06,161.26a56.32,56.32 0 0 0 -0.4,9.72c0.09,3.17 0.24,6.32 0.37,9.49c-0.61,2.73 -1.29,5.46 -2,8.16a25.3,25.3 0 0 1 -2.21,6.35a9.42,9.42 0 0 1 -2,2.57a9.62,9.62 0 0 1 -2.69,1.67a16.94,16.94 0 0 1 -7.23,1a23.22,23.22 0 0 1 -5.12,-0.78a14.34,14.34 0 0 1 -5.83,-3a12.58,12.58 0 0 1 -2.2,-2.58a17.49,17.49 0 0 1 -2.59,-7.79a28.75,28.75 0 0 1 1.71,-13.4c0.09,-0.25 0.19,-0.49 0.29,-0.74a53.6,53.6 0 0 0 2.09,-5.28s0,-0.05 0,-0.07c0.08,-0.3 0.15,-0.58 0.22,-0.87a1,1 0 0 1 -0.23,0.07l-0.41,0.15a3.1,3.1 0 0 1 -0.4,0.13c-0.29,0.11 -0.6,0.19 -0.89,0.27l-1,0.25c-0.57,0.12 -1.15,0.23 -1.73,0.3l-0.79,0.09c-7.37,0.75 -14.93,-2.13 -21.28,-5.55a21.44,21.44 0 0 1 -5.38,-3.89a13.54,13.54 0 0 1 -0.93,-1.1a9.37,9.37 0 0 1 -1.58,-3.21a3.62,3.62 0 0 1 0,-2.16a0.56,0.56 0 0 1 0.05,-0.08a4.35,4.35 0 0 1 0.9,-1.29a37.9,37.9 0 0 1 2.93,-2.88l0.32,-0.28a2.59,2.59 0 0 1 0.95,-0.53a2.42,2.42 0 0 1 2,0.44a9.75,9.75 0 0 1 1.42,1.21a27.85,27.85 0 0 0 20.94,7.64a16.25,16.25 0 0 0 6.08,-1.46a23,23 0 0 0 4.64,-3.32a43.82,43.82 0 0 0 3.62,-3.32c0.3,-0.32 0.61,-0.65 0.88,-1s0.44,-0.54 0.65,-0.81l0.26,-0.34a2.88,2.88 0 0 1 0.88,-0.86a3.54,3.54 0 0 1 1.61,-0.32c2.17,-0.09 4.53,-0.5 6.67,-0.45l0.23,0a4.2,4.2 0 0 1 0.62,0.07a5.13,5.13 0 0 1 2,0.93a16.39,16.39 0 0 1 1.9,2.18a15.74,15.74 0 0 1 3.08,5c1.04,3.06 0.06,6.41 -0.42,9.67z" fill="#020202" id="svg_72" opacity="0.1" transform="translate(-25.09 -12.62)"/>
  <path d="m295.9,279.76a4.82,4.82 0 0 0 -2.24,2.08a1,1 0 0 0 -0.09,0.66a1.2,1.2 0 0 0 0.79,0.68c2.52,1 5.37,0.82 8.05,0.34a42.47,42.47 0 0 1 8.06,-1.17a1.61,1.61 0 0 0 1.29,-0.36a1.38,1.38 0 0 0 0.23,-0.85a16.16,16.16 0 0 0 -1.2,-6.9c0.06,0.14 -7.13,0.42 -7.74,0.85c-1.15,0.79 -2.1,1.8 -3.32,2.53s-2.56,1.38 -3.83,2.14z" fill="#282328" id="svg_73" transform="translate(-25.09 -12.62)"/>
  <path d="m283.86,158.35c-4.79,-1.71 -9.67,-3.4 -13.49,-6.84a2.13,2.13 0 0 1 -0.85,-1.32a2.21,2.21 0 0 1 1,-1.63a10.27,10.27 0 0 1 2.31,-1.75a3.47,3.47 0 0 1 2.81,-0.25a5.89,5.89 0 0 1 1.7,1.29a25.54,25.54 0 0 0 12.5,6.14c4.53,1 9.52,1.06 13.87,-0.7c2.52,-1 8,-7.63 10.45,-6.66s1.37,5.86 0.18,7.38c-2.57,3.27 -9.08,4.82 -13,5.56a33.43,33.43 0 0 1 -17.48,-1.22z" fill="#fff" id="svg_74" transform="translate(-25.09 -12.62)"/>
  <path d="m322,147.54a4.24,4.24 0 0 0 2.28,-2.7a13.14,13.14 0 0 0 -4,-0.2l-3.83,0.19l-2.52,0.13c-1.57,0.09 -1.6,0.78 -1,1.86c0.28,0.51 1,0.92 1.3,1.47s0.35,1.14 0.71,1.56c1,1.2 1.28,0.52 2.57,-0.26s3.02,-1.25 4.49,-2.05z" fill="#fff" id="svg_75" transform="translate(-25.09 -12.62)"/>
  <path d="m279.76,38.15l-32.14,9.84l-12.81,-5.12l12.81,7.87l32.14,-12.59z" fill="url(#l)" id="svg_80"/>
 </g>
</svg>